# xmcd CD database file
#
# Track frame offsets:
#	150
#	17587
#	37037
#	52397
#	74365
#	91707
#	111360
#	124227
#	142765
#	161432
#	178217
#	192365
#	212612
#	226965
#	250417
#	274477
#	302832
#	316292
#
# Disc length: 4561 seconds
#
# Revision: 2
# Processed by: cddbd v1.5.2PL0 Copyright (c) Steve Scherf et al.
# Submitted via: CDex 1.70beta2
#
DISCID=0a11cf12
DTITLE=OFFCOURSE - Off Course Supper Best AUTUMN SELECTION
DYEAR=1997
DGENRE=New Music
TTITLE0=秋の気配
TTITLE1=ランナウェイ
TTITLE2=恋人よそのままで
TTITLE3=美しい思い出に
TTITLE4=YES-YES-YES
TTITLE5=その時はじめて
TTITLE6=恋はさりげなく
TTITLE7=夜はふたりで
TTITLE8=恋を抱きしめよう
TTITLE9=ひとりで生きてゆければ
TTITLE10=昨日への手紙
TTITLE11=流れゆく時の中で
TTITLE12=秋ゆく街で(LIVE)
TTITLE13=哀しいくらい
TTITLE14=愛の終る時
TTITLE15=言葉にできない
TTITLE16=ロンド
TTITLE17=冬が来る前に
EXTD=YEAR: 1997
EXTT0=
EXTT1=
EXTT2=
EXTT3=
EXTT4=
EXTT5=
EXTT6=
EXTT7=
EXTT8=
EXTT9=
EXTT10=
EXTT11=
EXTT12=
EXTT13=
EXTT14=
EXTT15=
EXTT16=
EXTT17=
PLAYORDER=
